<svg width="35" height="23" viewBox="0 0 35 23" fill="none" xmlns="http://www.w3.org/2000/svg">
<path d="M29.2757 0.206618C30.4703 0.483889 31.5558 1.10798 32.3953 2.00013C32.8577 2.48296 33.2592 3.02038 33.5909 3.60042C33.6064 3.66343 31.4382 5.11671 30.1233 5.92736C30.0756 5.95956 29.8861 5.75375 29.6714 5.43733C29.4312 5.02539 29.0902 4.6809 28.6804 4.43606C28.2706 4.19122 27.8052 4.05401 27.3278 4.03725C25.8164 3.93364 24.8425 4.72329 24.8495 6.04357C24.8365 6.36793 24.9106 6.68987 25.0642 6.97602C25.3968 7.66207 26.0143 8.07369 27.9537 8.91234C31.5238 10.4454 33.0563 11.4563 34.0021 12.8928C34.5367 13.8004 34.866 14.8137 34.9669 15.8616C35.0677 16.9095 34.9377 17.9668 34.5859 18.9593C34.1024 20.0478 33.3357 20.9873 32.3654 21.6804C31.3951 22.3734 30.2566 22.7947 29.068 22.9006C27.8045 23.0452 26.5279 23.032 25.2677 22.8614C23.3374 22.5449 21.5592 21.6206 20.1933 20.2236C19.6771 19.6438 19.2402 18.9983 18.8938 18.3041C19.0394 18.196 19.1928 18.0987 19.3527 18.0129C19.5744 17.8869 20.4136 17.4053 21.2051 16.9474L22.6421 16.1074L22.9424 16.5442C23.4482 17.2659 24.0921 17.8806 24.8369 18.3531C25.5891 18.7648 26.4412 18.9598 27.2981 18.9166C28.1549 18.8733 28.9829 18.5934 29.6896 18.1081C30.0542 17.7536 30.2821 17.2824 30.3334 16.7771C30.3847 16.2718 30.2562 15.7646 29.9703 15.3443C29.583 14.7913 28.7915 14.3265 26.542 13.3534C24.778 12.76 23.1714 11.7764 21.8422 10.4762C21.2092 9.75654 20.7417 8.90736 20.4725 7.98829C20.2735 6.94128 20.2441 5.86919 20.3855 4.81289C20.6496 3.5974 21.2818 2.49228 22.1966 1.6473C23.1113 0.802311 24.2643 0.258311 25.4993 0.0890117C26.7569 -0.060915 28.0299 -0.0212697 29.2757 0.206618ZM17.5676 2.28294L17.583 4.31867H11.0856V22.727H6.50368V4.32286H0.00621919V2.32355C-0.0110613 1.63886 0.00767563 0.953746 0.0623527 0.271021C0.0862095 0.23882 4.03661 0.223419 8.8262 0.231819L17.5423 0.255621L17.5676 2.28294Z" fill="#007ACC"/>
</svg>
