<svg width="41" height="38" viewBox="0 0 41 38" fill="none" xmlns="http://www.w3.org/2000/svg">
<path d="M30.1188 0C31.6284 0 33.0445 0.296709 34.3671 0.890128C35.6896 1.48355 36.8385 2.30303 37.8138 3.34858C38.789 4.39413 39.5639 5.61629 40.1383 7.01506C40.7128 8.41383 41 9.91151 41 11.5081C41 12.3276 40.9198 13.14 40.7595 13.9453C40.5992 14.7507 40.3587 15.5278 40.0381 16.2766H30.76L26.9125 12.0379L20.5 18.8199L11.5225 9.32515L5.10997 16.2766H0.961877C0.641251 15.5278 0.400782 14.7507 0.240469 13.9453C0.0801564 13.14 0 12.3276 0 11.5081C0 9.91151 0.280547 8.41383 0.841642 7.01506C1.40274 5.61629 2.17758 4.40119 3.16618 3.36977C4.15477 2.33835 5.31036 1.51887 6.63294 0.911322C7.95552 0.303774 9.37162 0 10.8812 0C12.3374 0 13.7268 0.289645 15.0494 0.868935C16.3719 1.44822 17.5543 2.28184 18.5963 3.36977L20.5 5.40435L22.4037 3.36977C23.4324 2.28184 24.608 1.44822 25.9306 0.868935C27.2532 0.289645 28.6492 0 30.1188 0ZM28.195 18.9894H38.415L38.1344 19.3285C38.0409 19.4415 37.9407 19.5616 37.8338 19.6888L20.5 38L3.16618 19.6888C3.0593 19.5758 2.95911 19.4627 2.86559 19.3497C2.77208 19.2367 2.67856 19.1166 2.58504 18.9894H7.67498L11.5225 15.0898L20.5 24.5845L23.7063 21.1935L26.9125 17.8026L28.195 18.9894Z" fill="black"/>
</svg>
