<svg width="67" height="67" viewBox="0 0 67 67" fill="none" xmlns="http://www.w3.org/2000/svg">
<path d="M63.1875 16.3125H53.8125V3.8125C53.8125 1.9375 52.5625 0.6875 50.6875 0.6875H16.3125C14.4375 0.6875 13.1875 1.9375 13.1875 3.8125V16.3125H3.8125C1.9375 16.3125 0.6875 17.5625 0.6875 19.4375V63.1875C0.6875 65.0625 1.9375 66.3125 3.8125 66.3125H63.1875C65.0625 66.3125 66.3125 65.0625 66.3125 63.1875V19.4375C66.3125 17.5625 65.0625 16.3125 63.1875 16.3125ZM19.4375 53.8125H16.3125C14.4375 53.8125 13.1875 52.5625 13.1875 50.6875C13.1875 48.8125 14.4375 47.5625 16.3125 47.5625H19.4375C21.3125 47.5625 22.5625 48.8125 22.5625 50.6875C22.5625 52.5625 21.3125 53.8125 19.4375 53.8125ZM19.4375 41.3125H16.3125C14.4375 41.3125 13.1875 40.0625 13.1875 38.1875C13.1875 36.3125 14.4375 35.0625 16.3125 35.0625H19.4375C21.3125 35.0625 22.5625 36.3125 22.5625 38.1875C22.5625 40.0625 21.3125 41.3125 19.4375 41.3125ZM35.0625 53.8125H31.9375C30.0625 53.8125 28.8125 52.5625 28.8125 50.6875C28.8125 48.8125 30.0625 47.5625 31.9375 47.5625H35.0625C36.9375 47.5625 38.1875 48.8125 38.1875 50.6875C38.1875 52.5625 36.9375 53.8125 35.0625 53.8125ZM35.0625 41.3125H31.9375C30.0625 41.3125 28.8125 40.0625 28.8125 38.1875C28.8125 36.3125 30.0625 35.0625 31.9375 35.0625H35.0625C36.9375 35.0625 38.1875 36.3125 38.1875 38.1875C38.1875 40.0625 36.9375 41.3125 35.0625 41.3125ZM38.1875 24.125H36.625V25.6875C36.625 27.5625 35.375 28.8125 33.5 28.8125C31.625 28.8125 30.375 27.5625 30.375 25.6875V24.125H28.8125C26.9375 24.125 25.6875 22.875 25.6875 21C25.6875 19.125 26.9375 17.875 28.8125 17.875H30.375V16.3125C30.375 14.4375 31.625 13.1875 33.5 13.1875C35.375 13.1875 36.625 14.4375 36.625 16.3125V17.875H38.1875C40.0625 17.875 41.3125 19.125 41.3125 21C41.3125 22.875 40.0625 24.125 38.1875 24.125ZM50.6875 53.8125H47.5625C45.6875 53.8125 44.4375 52.5625 44.4375 50.6875C44.4375 48.8125 45.6875 47.5625 47.5625 47.5625H50.6875C52.5625 47.5625 53.8125 48.8125 53.8125 50.6875C53.8125 52.5625 52.5625 53.8125 50.6875 53.8125ZM50.6875 41.3125H47.5625C45.6875 41.3125 44.4375 40.0625 44.4375 38.1875C44.4375 36.3125 45.6875 35.0625 47.5625 35.0625H50.6875C52.5625 35.0625 53.8125 36.3125 53.8125 38.1875C53.8125 40.0625 52.5625 41.3125 50.6875 41.3125Z" fill="black"/>
</svg>
