<svg width="28" height="29" viewBox="0 0 28 29" fill="none" xmlns="http://www.w3.org/2000/svg">
<path d="M27.8821 4.14678L14.7401 27.6468C14.6783 27.7573 14.5884 27.8494 14.4793 27.9137C14.3703 27.978 14.2461 28.0122 14.1195 28.0127C13.9929 28.0132 13.8685 27.9801 13.7589 27.9166C13.6494 27.8532 13.5587 27.7618 13.4961 27.6518L0.0940591 4.14878C0.0266788 4.03086 -0.0056682 3.89616 0.000813783 3.76049C0.00729577 3.62483 0.052338 3.49382 0.130655 3.38286C0.208971 3.27189 0.317313 3.18557 0.442967 3.13401C0.568621 3.08245 0.706373 3.0678 0.840059 3.09178L13.9961 5.44378C14.0797 5.45884 14.1654 5.45884 14.2491 5.44378L27.1301 3.09578C27.2632 3.07145 27.4006 3.08548 27.5261 3.13623C27.6516 3.18698 27.7601 3.27236 27.8389 3.38242C27.9177 3.49248 27.9636 3.62268 27.9713 3.75783C27.9789 3.89299 27.948 4.02854 27.8821 4.14678Z" fill="url(#paint0_linear_371_7)"/>
<path d="M20.262 0.0077762L10.538 1.91278C10.4602 1.92798 10.3896 1.96866 10.3374 2.02842C10.2853 2.08817 10.2545 2.16359 10.25 2.24278L9.652 12.3468C9.6487 12.4022 9.65837 12.4576 9.68025 12.5087C9.70213 12.5597 9.73562 12.6049 9.77805 12.6408C9.82047 12.6766 9.87067 12.702 9.92465 12.715C9.97863 12.7281 10.0349 12.7283 10.089 12.7158L12.796 12.0908C12.8543 12.0773 12.9151 12.0787 12.9727 12.0949C13.0304 12.111 13.083 12.1414 13.1258 12.1832C13.1686 12.225 13.2003 12.277 13.2178 12.3342C13.2353 12.3914 13.2381 12.4522 13.226 12.5108L12.422 16.4498C12.4096 16.5104 12.4132 16.5732 12.4324 16.6321C12.4516 16.6909 12.4857 16.7438 12.5315 16.7854C12.5773 16.8271 12.6331 16.8561 12.6935 16.8697C12.7539 16.8832 12.8168 16.8808 12.876 16.8628L14.548 16.3548C14.6073 16.3366 14.6703 16.3342 14.7308 16.3478C14.7913 16.3615 14.8472 16.3906 14.893 16.4324C14.9388 16.4741 14.973 16.5271 14.9921 16.5861C15.0112 16.6451 15.0146 16.7081 15.002 16.7688L13.723 22.9558C13.643 23.3428 14.158 23.5538 14.373 23.2228L14.516 23.0008L22.441 7.18578C22.4707 7.12619 22.4832 7.05946 22.477 6.99315C22.4709 6.92683 22.4462 6.86357 22.406 6.81052C22.3657 6.75746 22.3114 6.71672 22.2492 6.69291C22.187 6.6691 22.1194 6.66317 22.054 6.67578L19.267 7.21278C19.207 7.22426 19.1451 7.22016 19.0871 7.20086C19.0292 7.18157 18.9771 7.14773 18.936 7.10258C18.8949 7.05743 18.866 7.00248 18.8522 6.94298C18.8383 6.88349 18.84 6.82144 18.857 6.76278L20.675 0.456776C20.6921 0.39792 20.6938 0.335643 20.6799 0.275945C20.666 0.216246 20.6369 0.161137 20.5955 0.115925C20.5541 0.0707132 20.5018 0.0369215 20.4436 0.0178046C20.3853 -0.00131238 20.3231 -0.00511037 20.263 0.00677628L20.262 0.0077762Z" fill="url(#paint1_linear_371_7)"/>
<defs>
<linearGradient id="paint0_linear_371_7" x1="-0.233421" y1="2.25164" x2="16.1218" y2="24.4633" gradientUnits="userSpaceOnUse">
<stop stop-color="#41D1FF"/>
<stop offset="1" stop-color="#BD34FE"/>
</linearGradient>
<linearGradient id="paint1_linear_371_7" x1="13.24" y1="0.524558" x2="16.1985" y2="20.8201" gradientUnits="userSpaceOnUse">
<stop stop-color="#FFEA83"/>
<stop offset="0.083" stop-color="#FFDD35"/>
<stop offset="1" stop-color="#FFA800"/>
</linearGradient>
</defs>
</svg>
