<svg width="27" height="24" viewBox="0 0 27 24" fill="none" xmlns="http://www.w3.org/2000/svg">
<path d="M22.1994 7.77888C21.912 7.68039 21.6223 7.58915 21.3303 7.50524C21.3794 7.30503 21.4245 7.10725 21.4646 6.91295C22.1225 3.72221 21.6924 1.15169 20.2233 0.305347C18.8148 -0.506009 16.5112 0.340014 14.1848 2.36282C13.9555 2.56253 13.7313 2.768 13.5124 2.97903C13.3659 2.8387 13.2168 2.7011 13.0652 2.56629C10.6269 0.403447 8.183 -0.508117 6.71551 0.340646C5.30824 1.15453 4.89154 3.571 5.48385 6.59494C5.54278 6.89443 5.60931 7.19237 5.68339 7.48848C5.33746 7.58669 5.00365 7.69122 4.68418 7.80249C1.82556 8.79824 0 10.3587 0 11.9773C0 13.649 1.95982 15.3258 4.9372 16.3425C5.17859 16.4246 5.42198 16.5006 5.66715 16.5706C5.58753 16.8895 5.51683 17.2106 5.45516 17.5335C4.89048 20.505 5.33145 22.8643 6.73492 23.673C8.18448 24.5082 10.6174 23.6499 12.9864 21.5809C13.1785 21.4127 13.3663 21.2397 13.5498 21.0622C13.7868 21.2907 14.0302 21.5125 14.2796 21.7275C16.5744 23.7002 18.8407 24.4968 20.2428 23.6859C21.691 22.8483 22.1617 20.3137 21.5506 17.23C21.5025 16.9884 21.4485 16.7481 21.3887 16.5091C21.5596 16.4585 21.7273 16.4064 21.8908 16.3523C24.9861 15.3278 27 13.6713 27 11.9773C27 10.3528 25.1155 8.7818 22.1994 7.77888ZM21.5281 15.2585C21.3804 15.3073 21.229 15.3544 21.0746 15.4003C20.7328 14.3195 20.2717 13.1703 19.7074 11.9829C20.2459 10.8238 20.6893 9.68926 21.0214 8.61553C21.2976 8.6954 21.5656 8.77959 21.824 8.86842C24.3226 9.72782 25.8466 10.9983 25.8466 11.9773C25.8466 13.02 24.2006 14.3737 21.5281 15.2585ZM20.4192 17.4538C20.6894 18.8173 20.7279 20.0502 20.5489 21.014C20.3882 21.88 20.0648 22.4574 19.6649 22.6887C18.814 23.1807 16.9944 22.5411 15.0319 20.8539C14.7999 20.6541 14.5736 20.4478 14.353 20.2354C15.1139 19.4041 15.8742 18.4378 16.6163 17.3645C17.9216 17.2488 19.1547 17.0595 20.273 16.8013C20.3269 17.0176 20.3756 17.2352 20.4192 17.4538ZM9.20489 22.6036C8.37359 22.8969 7.71145 22.9053 7.3112 22.6748C6.45954 22.184 6.10548 20.2896 6.58842 17.7484C6.64583 17.4482 6.71156 17.1495 6.78554 16.8529C7.89149 17.0974 9.11566 17.2731 10.424 17.3791C11.1711 18.4294 11.9534 19.3947 12.7418 20.2399C12.5742 20.4019 12.4027 20.5597 12.2274 20.7133C11.1798 21.6281 10.1301 22.2772 9.20489 22.6036ZM5.31035 15.2521C3.99379 14.8025 2.90651 14.2182 2.16127 13.5806C1.49154 13.0077 1.15351 12.4388 1.15351 11.9773C1.15351 10.995 2.61921 9.74215 5.06387 8.89065C5.36055 8.78739 5.67105 8.68992 5.99326 8.59846C6.33118 9.69642 6.77436 10.8444 7.3092 12.0053C6.7674 13.1834 6.31789 14.3497 5.9767 15.4606C5.75291 15.3966 5.53073 15.3271 5.31035 15.2521ZM6.61584 6.37355C6.10843 3.7828 6.44541 1.82848 7.29348 1.33798C8.19671 0.815552 10.1941 1.56042 12.2993 3.42801C12.4366 3.55007 12.5717 3.67461 12.7044 3.80155C11.92 4.64315 11.1449 5.60129 10.4044 6.6453C9.13454 6.7629 7.91902 6.95172 6.80147 7.20472C6.73262 6.9293 6.67072 6.65209 6.61584 6.37355ZM18.2624 9.24681C17.9985 8.79128 17.7247 8.34149 17.4414 7.89774C18.3028 8.00659 19.1282 8.15105 19.9033 8.32766C19.6707 9.07284 19.3806 9.85185 19.0392 10.6506C18.7897 10.1775 18.5307 9.70951 18.2624 9.24681ZM13.513 4.62513C14.045 5.20098 14.5778 5.84385 15.1019 6.54141C14.0387 6.49125 12.9738 6.49103 11.9107 6.54078C12.4353 5.84965 12.9727 5.20762 13.513 4.62513ZM8.73302 9.25471C8.46812 9.71369 8.21398 10.1788 7.9708 10.6496C7.63499 9.85374 7.34759 9.07115 7.11292 8.31543C7.88326 8.14326 8.70476 8.00248 9.56074 7.89563C9.27423 8.34209 8.99825 8.79531 8.73302 9.25471ZM9.58532 16.1409C8.70096 16.0423 7.86713 15.9088 7.09699 15.7412C7.33535 14.972 7.62908 14.1728 7.97217 13.3599C8.21631 13.831 8.47151 14.2964 8.73756 14.7556C9.01114 15.2277 9.29443 15.69 9.58532 16.1409ZM13.5448 19.4106C12.9981 18.8213 12.4528 18.1694 11.9203 17.4683C12.4373 17.4885 12.9643 17.4988 13.5 17.4988C14.0503 17.4988 14.5943 17.4865 15.1298 17.4627C14.604 18.1765 14.0732 18.8293 13.5448 19.4106ZM19.0501 13.3183C19.411 14.1402 19.7152 14.9353 19.9567 15.6913C19.1739 15.8698 18.3287 16.0135 17.4381 16.1203C17.7235 15.6683 17.9998 15.2107 18.267 14.7477C18.5386 14.2771 18.7997 13.8005 19.0501 13.3183ZM17.2679 14.1719C16.8589 14.8818 16.4269 15.5781 15.9726 16.2599C15.1497 16.3181 14.325 16.347 13.5 16.3466C12.6597 16.3466 11.8425 16.3205 11.0554 16.2695C10.5893 15.5893 10.1491 14.8917 9.73571 14.1783C9.3243 13.4686 8.94012 12.7436 8.58379 12.0048C8.93921 11.2658 9.32233 10.5404 9.73234 9.83025L9.73223 9.83035C10.1421 9.11996 10.5788 8.42538 11.0414 7.74812C11.8444 7.68742 12.6677 7.65581 13.4999 7.65581C14.3358 7.65581 15.1604 7.68774 15.9631 7.74885C16.4211 8.42511 16.855 9.1173 17.2641 9.82413C17.6754 10.5328 18.0636 11.2546 18.428 11.9885C18.0674 12.7298 17.6804 13.4581 17.2679 14.1719ZM19.6472 1.30363C20.5513 1.82458 20.903 3.92536 20.3349 6.68029C20.2986 6.85605 20.2579 7.03507 20.2136 7.21662C19.0933 6.95826 17.877 6.76616 16.6034 6.64678C15.8616 5.59128 15.0928 4.63167 14.3211 3.80092C14.5233 3.60614 14.7304 3.41642 14.9421 3.23192C16.9354 1.49888 18.7984 0.814604 19.6472 1.30363ZM13.5 9.5685C14.8315 9.5685 15.911 10.647 15.911 11.9773C15.911 13.3076 14.8315 14.3861 13.5 14.3861C12.1685 14.3861 11.089 13.3076 11.089 11.9773C11.089 10.647 12.1685 9.5685 13.5 9.5685Z" fill="#00D8FF"/>
</svg>
