<svg width="15" height="15" viewBox="0 0 15 15" fill="none" xmlns="http://www.w3.org/2000/svg">
<path d="M9.67997 10.74C8.47433 11.6758 6.95739 12.117 5.43792 11.9738C3.91845 11.8306 2.51067 11.1137 1.50113 9.9691C0.491599 8.82448 -0.0438024 7.33817 0.00391234 5.81272C0.0516271 4.28726 0.678872 2.83731 1.75797 1.75803C2.83725 0.678933 4.2872 0.0516881 5.81265 0.00397337C7.33811 -0.0437414 8.82442 0.49166 9.96904 1.50119C11.1137 2.51073 11.8305 3.91851 11.9738 5.43798C12.117 6.95745 11.6758 8.4744 10.74 9.68003L13.78 12.72C13.8787 12.8117 13.9509 12.9283 13.9889 13.0576C14.0269 13.1868 14.0293 13.3239 13.996 13.4544C13.9626 13.585 13.8946 13.7041 13.7992 13.7992C13.7039 13.8943 13.5846 13.962 13.454 13.995C13.3236 14.0284 13.1866 14.0261 13.0575 13.9883C12.9283 13.9504 12.8117 13.8785 12.72 13.78L9.67997 10.74ZM10.5 6.00003C10.5089 5.40363 10.3991 4.81142 10.177 4.25785C9.95491 3.70427 9.62497 3.20038 9.20637 2.77548C8.78776 2.35059 8.28884 2.01318 7.73864 1.78287C7.18844 1.55256 6.59793 1.43396 6.00147 1.43396C5.40501 1.43396 4.8145 1.55256 4.26429 1.78287C3.71409 2.01318 3.21517 2.35059 2.79657 2.77548C2.37796 3.20038 2.04802 3.70427 1.82594 4.25785C1.60386 4.81142 1.49407 5.40363 1.50297 6.00003C1.52058 7.18149 2.00228 8.3086 2.844 9.13786C3.68571 9.96712 4.81988 10.432 6.00147 10.432C7.18306 10.432 8.31722 9.96712 9.15894 9.13786C10.0007 8.3086 10.4824 7.18149 10.5 6.00003Z" fill="black"/>
</svg>
